<?xml version="1.0" encoding="utf-8"?>
<!-- Generator: Adobe Illustrator 22.1.0, SVG Export Plug-In . SVG Version: 6.00 Build 0)  -->
<svg version="1.0" id="Layer_1" xmlns="http://www.w3.org/2000/svg" xmlns:xlink="http://www.w3.org/1999/xlink" x="0px" y="0px"
	 viewBox="0 0 150.7 200" style="enable-background:new 0 0 150.7 200;" xml:space="preserve">
<style type="text/css">
	.st0{fill:#161716;}
	.st1{fill:#161716;}
</style>
<g>
	<rect x="109.6" y="50.8" class="st0" width="41.1" height="20.4"/>
	<g>
		<g>
			<path class="st0" d="M16.1,176.7H8.4v4.7h6.3v5.7H8.5v11.6H1.3v-27.9h15.4L16.1,176.7z"/>
			<path class="st0" d="M20.3,198.7v-27.9h16.2l-0.5,5.9h-8.5v4.7h7v5.7h-7v5.7H37v6H20.3z"/>
			<path class="st0" d="M55.2,198.7l-2.9-7.8c-0.2-0.5-0.5-1.4-1-2.2c-0.4-0.6-0.9-1.1-2.3-1.1v11h-7.2v-27.9h9.6
				c1.8,0,6.7,0.2,9.1,2.8c1.5,1.6,1.7,3.8,1.7,5.1c0,2.8-0.8,4.4-1.7,5.5c-0.6,0.8-1.9,2-4.1,2.3c0.8,0.3,1.8,1,2.8,3l0.9,1.9
				c1.4,3,1.5,3.2,3.3,7.2H55.2z M51,182.4c0.2,0,1.6,0,2.4-0.6c0.8-0.7,0.9-1.8,0.9-2.4c0-0.5,0-1.4-0.6-1.9
				c-0.7-0.8-2-0.8-2.7-0.8h-2v5.7H51z"/>
			<path class="st0" d="M81,198.7l-2.9-7.8c-0.2-0.5-0.5-1.4-1-2.2c-0.4-0.6-0.9-1.1-2.3-1.1v11h-7.2v-27.9h9.6
				c1.8,0,6.7,0.2,9.1,2.8c1.5,1.6,1.7,3.8,1.7,5.1c0,2.8-0.8,4.4-1.7,5.5c-0.6,0.8-1.9,2-4.1,2.3c0.8,0.3,1.8,1,2.8,3l0.9,1.9
				c1.4,3,1.5,3.2,3.3,7.2H81z M76.8,182.4c0.2,0,1.6,0,2.4-0.6c0.8-0.7,0.9-1.8,0.9-2.4c0-0.5,0-1.4-0.6-1.9
				c-0.7-0.8-2-0.8-2.7-0.8h-2v5.7H76.8z"/>
			<path class="st0" d="M114.2,190.1c0,2.8-0.2,3.7-0.7,4.6c-1.6,2.9-5.2,4.5-9.8,4.5c-5.4,0-7.8-1.8-9.1-3.5
				c-1.3-1.6-1.4-3.1-1.4-5.9v-19h7.2V189c0,1.6,0.3,2.4,0.6,3c0.4,0.6,1.1,1.4,2.7,1.4c1.6,0,2.4-0.7,2.9-1.6
				c0.2-0.5,0.4-1.2,0.4-2.6v-18.3h7.2V190.1z"/>
			<path class="st0" d="M147.6,170.8l2.6,27.9h-7l-0.7-11.2c-0.1-1.1-0.2-1.7-0.2-5.6h0c-0.2,1.2-0.6,3.9-1,5.2l-3.4,11.6h-6.1
				l-3-11.3c-0.4-1.5-0.8-3.3-0.9-5.6h0c0,2,0,3.6-0.1,5.8l-0.6,11.1H120l2.7-27.9h8.8l2.7,11c0.2,1,0.7,3,0.9,5.3h0
				c0.3-2.8,0.7-4.2,1.1-5.7l2.8-10.6H147.6z"/>
		</g>
		<polygon class="st0" points="20.4,71.1 61.3,71.1 61.3,50.8 20.4,50.8 20.4,21.2 74.6,21.2 74.6,121.1 150.7,121.1 150.7,100.7 
			95,100.7 95,21.2 150.7,21.2 150.7,0.8 76.1,0.8 74.6,0.8 0,0.8 0,121.1 20.4,121.1 		"/>
		<rect x="0.8" y="135.8" class="st1" width="150.7" height="20.4"/>
	</g>
</g>
</svg>
